# xmcd CD database file
#
# Track frame offsets:
#	150
#	14665
#	31962
#	53047
#	70485
#	89460
#	105410
#	119685
#	137272
#	151815
#	170620
#	185615
#
# Disc length: 2673 seconds
#
# Revision: 1
# Processed by: cddbd v1.4PL0 Copyright (c) Steve Scherf et al.
# Submitted via: CDValet v3.40 - Copyright (c) 1996 - 1998 Greg Leichner
#
DISCID=9f0a6f0c
DTITLE=Muldaur, Geoff - Sleepy Man Blues
DYEAR=1900
DGENRE=
TTITLE0=Jelly Roll Baker
TTITLE1=The Rain Don't Fall On Me
TTITLE2=Sleepy Man Blues
TTITLE3=This Morning She Was Gone
TTITLE4=I Have Had My Fun
TTITLE5=Good Gin Blues
TTITLE6=Motherless Chile Blues
TTITLE7=Georgia Skin Game
TTITLE8=Aberdeen, Mississippi Blues
TTITLE9=Trouble In Mind
TTITLE10=Everybody Ought To Make A Change
TTITLE11=Drop Down Mama
EXTD=
EXTT0=
EXTT1=
EXTT2=
EXTT3=
EXTT4=
EXTT5=
EXTT6=
EXTT7=
EXTT8=
EXTT9=
EXTT10=
EXTT11=
PLAYORDER=
